<svg width="37" height="37" viewBox="0 0 37 37" fill="none" xmlns="http://www.w3.org/2000/svg">
<path d="M3.81494 5.54907C3.81494 3.01916 5.86584 0.968262 8.39575 0.968262H31.8758C34.4057 0.968262 36.4566 3.01916 36.4566 5.54907V29.3539C36.4566 31.8838 34.4057 33.9347 31.8758 33.9347H8.39575C5.86584 33.9347 3.81494 31.8838 3.81494 29.3539V5.54907Z" fill="white" fill-opacity="0.9"/>
<g filter="url(#filter0_b_45_158)">
<rect x="0.616699" y="4.00342" width="32.6416" height="32.9664" rx="4.58081" fill="white" fill-opacity="0.25"/>
</g>
<path d="M0.616699 8.58423C0.616699 6.05432 2.6676 4.00342 5.19751 4.00342H28.8399C31.3698 4.00342 33.4207 6.05432 33.4207 8.58423V12.2044H0.616699V8.58423Z" fill="url(#paint0_linear_45_158)" fill-opacity="0.76"/>
<path d="M11.9616 34.8108C10.7865 34.8108 9.73857 34.6574 8.81779 34.3505C7.90577 34.0435 7.2393 33.6884 6.81837 33.285L7.55499 31.3513C8.79148 32.3247 10.2647 32.8114 11.9748 32.8114C13.2902 32.8114 14.3337 32.487 15.1054 31.838C15.8859 31.1803 16.2761 30.2639 16.2761 29.0888C16.2761 28.4487 16.1753 27.8918 15.9736 27.4183C15.7807 26.9359 15.5176 26.5501 15.1844 26.2607C14.8599 25.9625 14.439 25.7258 13.9216 25.5504C13.4129 25.3662 12.8868 25.2391 12.3431 25.1689C11.8081 25.09 11.1855 25.0418 10.4752 25.0242C10.3875 25.0242 10.256 25.0242 10.0806 25.0242C9.90519 25.0154 9.77365 25.0111 9.68595 25.0111V23.0511H10.3437C10.9575 23.0423 11.4968 23.0116 11.9616 22.959C12.4352 22.8976 12.9043 22.7924 13.3691 22.6433C13.8426 22.4943 14.2329 22.2969 14.5398 22.0514C14.8467 21.8059 15.0967 21.477 15.2896 21.0648C15.4825 20.6527 15.579 20.166 15.579 19.6047C15.579 17.5001 14.3732 16.4478 11.9616 16.4478C11.0934 16.4478 10.2779 16.5749 9.51495 16.8292C8.75201 17.0835 8.0987 17.4255 7.55499 17.8552L6.81837 15.9348C8.125 14.9438 10.006 14.4483 12.4615 14.4483C13.4524 14.4483 14.3688 14.6325 15.2107 15.0008C16.0525 15.3604 16.7453 15.9172 17.289 16.6714C17.8327 17.4168 18.1046 18.2937 18.1046 19.3022C18.1046 20.5299 17.802 21.5384 17.1969 22.3276C16.5918 23.1169 15.7412 23.6825 14.645 24.0245C15.8728 24.2876 16.833 24.862 17.5258 25.7477C18.2273 26.6334 18.5781 27.7559 18.5781 29.1151C18.5781 30.8427 17.9599 32.2239 16.7234 33.2587C15.4869 34.2935 13.8996 34.8108 11.9616 34.8108ZM23.9318 14.8298H26.0233V34.5083H23.695V17.2633C22.8093 17.8421 21.7263 18.3376 20.446 18.7497V16.553C20.5863 16.4916 20.8713 16.3688 21.301 16.1847C21.7307 16.0005 22.0508 15.8602 22.2612 15.7638C22.4805 15.6673 22.7523 15.5314 23.0768 15.356C23.4013 15.1806 23.6863 15.0052 23.9318 14.8298Z" fill="black"/>
<rect width="1.54276" height="5.68387" rx="0.771382" transform="matrix(-1 0 0 1 26.5193 1.16162)" fill="#624545"/>
<rect width="1.54276" height="5.68387" rx="0.771382" transform="matrix(-1 0 0 1 10.6851 1.16162)" fill="#624545"/>
<defs>
<filter id="filter0_b_45_158" x="-3.20064" y="0.186075" width="40.2763" height="40.601" filterUnits="userSpaceOnUse" color-interpolation-filters="sRGB">
<feFlood flood-opacity="0" result="BackgroundImageFix"/>
<feGaussianBlur in="BackgroundImageFix" stdDeviation="1.90867"/>
<feComposite in2="SourceAlpha" operator="in" result="effect1_backgroundBlur_45_158"/>
<feBlend mode="normal" in="SourceGraphic" in2="effect1_backgroundBlur_45_158" result="shape"/>
</filter>
<linearGradient id="paint0_linear_45_158" x1="17.0187" y1="4.00342" x2="17.0187" y2="12.2044" gradientUnits="userSpaceOnUse">
<stop stop-color="#FF0000"/>
<stop offset="0.859375" stop-color="#FF0000" stop-opacity="0.49"/>
</linearGradient>
</defs>
</svg>
