<svg width="23" height="23" viewBox="0 0 23 23" fill="none" xmlns="http://www.w3.org/2000/svg">
<path fill-rule="evenodd" clip-rule="evenodd" d="M1.60465 10.4302C1.60465 5.55599 5.55599 1.60465 10.4302 1.60465C15.3044 1.60465 19.2558 5.55599 19.2558 10.4302C19.2558 15.3044 15.3044 19.2558 10.4302 19.2558C5.55599 19.2558 1.60465 15.3044 1.60465 10.4302ZM10.4302 0C4.66977 0 0 4.66977 0 10.4302C0 16.1907 4.66977 20.8604 10.4302 20.8604C16.1907 20.8604 20.8604 16.1907 20.8604 10.4302C20.8604 4.66977 16.1907 0 10.4302 0ZM19.817 20.3334C19.7962 20.2557 19.7921 20.2283 19.7918 20.227C19.773 19.9794 19.9793 19.7731 20.2269 19.7919C20.2282 19.7922 20.2556 19.7963 20.3333 19.8171C20.4244 19.8414 20.5453 19.8775 20.7296 19.9328C20.8986 19.9834 21.0081 20.0163 21.0894 20.0434C21.1538 20.0648 21.1779 20.0754 21.182 20.0771L21.1825 20.0774C21.3913 20.1904 21.4588 20.4579 21.3286 20.6564L21.3282 20.6569C21.3254 20.6604 21.3092 20.6812 21.2628 20.7305C21.204 20.7929 21.1232 20.8738 20.9984 20.9986C20.8737 21.1233 20.7928 21.2041 20.7304 21.2629C20.6774 21.3128 20.6574 21.3278 20.6563 21.3287C20.4577 21.4589 20.1903 21.3914 20.0773 21.1826C20.0767 21.1813 20.0663 21.1586 20.0433 21.0895C20.0162 21.0082 19.9833 20.8987 19.9327 20.7297C19.8774 20.5454 19.8413 20.4245 19.817 20.3334ZM20.3611 18.1929C19.1239 18.0911 18.091 19.124 18.1928 20.3613C18.2104 20.5751 18.2883 20.8339 18.3724 21.1132L18.3955 21.1903L18.4164 21.2599C18.4929 21.5165 18.5647 21.7571 18.6618 21.9384C19.2208 22.9824 20.5565 23.3194 21.5438 22.6655C21.7153 22.552 21.8927 22.3742 22.0817 22.1847L22.0817 22.1847L22.1331 22.1332L22.1846 22.0818C22.3741 21.8928 22.5519 21.7154 22.6654 21.5439C23.3193 20.5566 22.9823 19.2209 21.9383 18.6619C21.757 18.5648 21.5164 18.493 21.2599 18.4165L21.2598 18.4165L21.1902 18.3956L21.1131 18.3725C20.8338 18.2884 20.575 18.2105 20.3611 18.1929Z" fill="url(#paint0_linear_232_13)"/>
<defs>
<linearGradient id="paint0_linear_232_13" x1="2.40697" y1="3.74418" x2="21.9302" y2="21.1279" gradientUnits="userSpaceOnUse">
<stop stop-color="#C66AEA"/>
<stop offset="1" stop-color="#7060E5"/>
</linearGradient>
</defs>
</svg>
