<svg width="100" height="100" viewBox="0 0 100 100" fill="none" xmlns="http://www.w3.org/2000/svg">
<path fill-rule="evenodd" clip-rule="evenodd" d="M50.0002 91.6667C73.012 91.6667 91.6668 73.0119 91.6668 50C91.6668 26.9881 73.012 8.33334 50.0002 8.33334C26.9883 8.33334 8.3335 26.9881 8.3335 50C8.3335 73.0119 26.9883 91.6667 50.0002 91.6667ZM53.1252 37.5C53.1252 35.7741 51.7261 34.375 50.0002 34.375C48.2743 34.375 46.8752 35.7741 46.8752 37.5L46.8752 46.8751H37.5002C35.7743 46.8751 34.3752 48.2742 34.3752 50.0001C34.3752 51.726 35.7743 53.1251 37.5002 53.1251H46.8752V62.5C46.8752 64.2259 48.2743 65.625 50.0002 65.625C51.7261 65.625 53.1252 64.2259 53.1252 62.5L53.1252 53.1251H62.5002C64.2261 53.1251 65.6252 51.726 65.6252 50.0001C65.6252 48.2742 64.2261 46.8751 62.5002 46.8751H53.1252V37.5Z" fill="#E5C5FF"/>
</svg>
