<svg width="25" height="26" viewBox="0 0 25 26" fill="none" xmlns="http://www.w3.org/2000/svg">
<path fill-rule="evenodd" clip-rule="evenodd" d="M3.65088 9.00492C3.65088 4.04673 7.59731 -0.000976562 12.5 -0.000976562C17.4028 -0.000976562 21.3492 4.04673 21.3492 9.00492V9.82529C21.3492 10.6456 21.5874 11.4463 22.0321 12.1263L23.3446 14.1337C24.8495 16.4353 23.714 19.5853 21.0594 20.3235C20.1947 20.5639 19.3226 20.7673 18.4455 20.9335L18.44 20.9491C17.5666 23.3253 15.2246 25.0013 12.4998 25.0013C9.7751 25.0013 7.43314 23.3253 6.55972 20.9491L6.55412 20.9334C5.67717 20.7672 4.80528 20.5639 3.9407 20.3235C1.28603 19.5853 0.150542 16.4353 1.65547 14.1337L2.96802 12.1263C3.41265 11.4463 3.65088 10.6456 3.65088 9.82529V9.00492ZM8.60786 21.2539C11.1931 21.5716 13.8066 21.5716 16.3918 21.254C15.5804 22.4769 14.1483 23.3013 12.4998 23.3013C10.8514 23.3013 9.41923 22.4769 8.60786 21.2539ZM12.5 1.69902C8.56714 1.69902 5.35088 4.95436 5.35088 9.00492V9.82529C5.35088 10.974 5.01747 12.0983 4.39086 13.0566L3.07831 15.064C2.18546 16.4296 2.88047 18.2642 4.39614 18.6856C9.70195 20.161 15.2981 20.161 20.6039 18.6856C22.1196 18.2642 22.8146 16.4296 21.9218 15.0641L20.6092 13.0566C19.9826 12.0983 19.6492 10.974 19.6492 9.82529V9.00492C19.6492 4.95436 16.4329 1.69902 12.5 1.69902ZM13.35 5.50937C13.35 5.03993 12.9694 4.65937 12.5 4.65937C12.0305 4.65937 11.65 5.03993 11.65 5.50937V10.1699C11.65 10.6393 12.0305 11.0199 12.5 11.0199C12.9694 11.0199 13.35 10.6393 13.35 10.1699V5.50937Z" fill="url(#paint0_linear_232_19)"/>
<defs>
<linearGradient id="paint0_linear_232_19" x1="12.9904" y1="0.0156046" x2="12.9904" y2="24.9849" gradientUnits="userSpaceOnUse">
<stop stop-color="#C66AEA"/>
<stop offset="1" stop-color="#7160E5"/>
</linearGradient>
</defs>
</svg>
